/* XPM */
static char *result[] = {
/* columns rows colors chars-per-pixel */
"32 32 7 1 ",
"  c black",
". c #21110D",
"X c #342319",
"o c #503625",
"O c #755338",
"+ c #677598",
"@ c None",
/* pixels */
"#..............##..............#",
".OOOOOOOOOOOOOO..OOOOOOOOOOOOOO.",
".OOOOOOOOOOOOOO..OOOOOOOOOOOOOO.",
".oXXXXXXXXXXXXo..oXXXXXXXXXXXXo.",
".OXooXooooXooXO..OXooXooooXooXO.",
".OXoooooooXooXO..OXoooooooXooXO.",
".OXooooooooooXO..OXooooooooooXO.",
".OXooooooooooXO..OXooooooooooXO.",
".OXoooooooo@+XO..OXoooooooo@+XO.",
".OXoooooooo++XO..OXoooooooo++XO.",
".OXooooooooXXXO..OXooooooooXXXO.",
".OXooXoooooooXO..OXooXoooooooXO.",
".OXooXoooooooXO..OXooXoooooooXO.",
".OXooXooooXooXO..OXooXooooXooXO.",
".OOOOOOOOOOOOOO..OOOOOOOOOOOOOO.",
"#..............##..............#",
"#..............##..............#",
".OOOOOOOOOOOOOO..OOOOOOOOOOOOOO.",
".OOOOOOOOOOOOOO..OOOOOOOOOOOOOO.",
".oXXXXXXXXXXXXo..oXXXXXXXXXXXXo.",
".OXooXooooXooXO..OXooXooooXooXO.",
".OXoooooooXooXO..OXoooooooXooXO.",
".OXooooooooooXO..OXooooooooooXO.",
".OXooooooooooXO..OXooooooooooXO.",
".OXoooooooo@+XO..OXoooooooo@+XO.",
".OXoooooooo++XO..OXoooooooo++XO.",
".OXooooooooXXXO..OXooooooooXXXO.",
".OXooXoooooooXO..OXooXoooooooXO.",
".OXooXoooooooXO..OXooXoooooooXO.",
".OXooXooooXooXO..OXooXooooXooXO.",
".OOOOOOOOOOOOOO..OOOOOOOOOOOOOO.",
"#..............##..............#"
};
