/* XPM */
static char *_e68d11d39e64309e430d53fe9d4e5154qHFyU615mjBv5rP[] = {
/* columns rows colors chars-per-pixel */
"288 32 12 1 ",
"  c None",
". c black",
"X c #21110D",
"o c #181C32",
"O c #402717",
"+ c #573A23",
"@ c #AC7B5D",
"# c #1D438A",
"$ c #2C65B5",
"% c #787E97",
"& c #A4A8B5",
"* c #C1AC8F",
/* pixels */
"                                                                                                                                                                                                                                                                                                ",
"                                                                                                                                                                                                                                                                                                ",
"                                                                                                                                                                                                                                                                                                ",
"                                                                                                                                                                                                                                                                                                ",
"                   .... ..                                                                                                                                         .... ..                                                                                                                      ",
"                   .++O.+...                                       .... ..                                                                                         .++O.+...                                       .... ..                                                                      ",
"                   ..++O+O++.                                      .++O.+...                                       .... ..                                         ..++O+O++.                                      .++O.+...                                       .... ..                      ",
"                  .O+++++++++.                                     ..++O+O++.                                      .++O.+...                                      .O+++++++++.                                     ..++O+O++.                                      .++O.+...                    ",
"                 .O+++++++++++.                                   .O+++++++++.                                     ..++O+O++.                                    .O+++++++++++.                                   .O+++++++++.                                     ..++O+O++.                   ",
"                 .O++O+++OO+++.                                  .O+++++++++++.                                   .O+++++++++.                                   .O++O+++OO+++.                                  .O+++++++++++.                                   .O+++++++++.                  ",
"                 .OOOO+++O@@O+O.                                 .O++O+++OO+++.                                  .O+++++++++++.                                  .OOOO+++O@@O+O.                                 .O++O+++OO+++.                                  .O+++++++++++.                 ",
"                 .O+OO++O@@@@OO.                                 .OOOO+++O@@O+O.                                 .O++O+++OO+++.                                  .O+OO++O@@@@OO.                                 .OOOO+++O@@O+O.                                 .O++O+++OO+++.                 ",
"                 .O++@O+@X**X.O.                                 .O+OO++O@@@@OO.                                 .OOOO+++O@@O+O.                                 .O++@O+@X**X.O.                                 .O+OO++O@@@@OO.                                 .OOOO+++O@@O+O.                ",
"                 .OO+@@O*X**X..                                  .O++@O+@X**X.O.                                 .O+OO++O@@@@OO.                                 .OO+@@O*X**X..                                  .O++@O+@X**X.O.                                 .O+OO++O@@@@OO.                ",
"                  .OO@@******.                                   .OO+@@O*X**X..                                  .O++@O+@X**X.O.                                  .OO@@******.                                   .OO+@@O*X**X..                                  .O++@O+@X**X.O.                ",
"                   .OOO@****@.                                    .OO@@******.                                   .OO+@@O*X**X..                                    .OOO@****@.                                    .OO@@******.                                   .OO+@@O*X**X..                 ",
"                    .O+O@@@@.                                      .OOO@****@.                                    .OO@@******.                                     .O+++@@@@.                                     .OOO@@****@.                                    .OO@@******.                  ",
"                    .O++O%%O.                                       .O++@@@@.                                      .OOO@****@.                                     .++++%%%..                                     .O+++@@@@@.                                      .OOO@****@.                  ",
"                     .++O&&O.                                       .O+++%%O.                                       .O++@@@@.                                      .+++O%&&@.                                     .OO++%%%O..                                      .O++O@@@@.                   ",
"                     .**O$$$.                                       .O+**&&O.                                       .+++%%%.                                        .**O$$$$.                                     .**O+%&&O@@.                                     .+++O%%%O.                   ",
"                    .$**#$$OO.                                      .$O**$$#.                                       .+++%&&.                                        .**#$$$OO.                                    .**O$$$$#@@.                                     .++OO%&&@.                   ",
"                    .$$#..OOO.                                     .OO$$$$##.                                        .**$$$.                                        .###..OOO.                                     .O##$$$$O.                                      .**O$$$$@.                   ",
"                   .$$#. ....                                      .OO...###.                                        .**$$#.                                        .##. ....                                      .OO..#$$$.                                      .**#$$$$.                    ",
"                   .OO#.oooooo                                     ...ooo.#OO.                                     oo..O$##.oo                                     .OO#.oooooo                                     ...oo.#$OO.                                     o...O#$OO.o                  ",
"                  o.OO.oooooooo                                   ooooooo.OOO.o                                   ooo....OO.ooo                                   o.OO.oooooooo                                   ooooooo.OOO.o                                   oooo...OOO.oo                 ",
"                  ooooooooooooo                                   ooooooooooooo                                   ooooooooooooo                                   ooooooooooooo                                   ooooooooooooo                                   ooooooooooooo                 ",
"                   ooooooooooo                                     ooooooooooo                                     ooooooooooo                                     ooooooooooo                                     ooooooooooo                                     ooooooooooo                  ",
"                                                                                                                                                                                                                                                                                                ",
"                                                                                                                                                                                                                                                                                                ",
"                                                                                                                                                                                                                                                                                                ",
"                                                                                                                                                                                                                                                                                                ",
"                                                                                                                                                                                                                                                                                                "
};
