/* XPM */
static char *_17cddedf8324f30da96a0aa9d56326bSQ7DimdwerGDfYxb[] = {
/* columns rows colors chars-per-pixel */
"32 32 12 1 ",
"  c None",
". c black",
"X c #21110D",
"o c #181C32",
"O c #402717",
"+ c #573A23",
"@ c #AC7B5D",
"# c #1D438A",
"$ c #2C65B5",
"% c #787E97",
"& c #A4A8B5",
"* c #C1AC8F",
/* pixels */
"                                ",
"                                ",
"                                ",
"                                ",
"                                ",
"                                ",
"           .... ..              ",
"           .++O.+...            ",
"           ..++O+O++.           ",
"          .O+++++++++.          ",
"         .O+++++++++++.         ",
"         .O++O+++OO+++.         ",
"         .OOOO+++O@@O+O.        ",
"         .O+OO++O@@@@OO.        ",
"         .O++@O+@X**X.O.        ",
"         .OO+@@O*X**X..         ",
"          .OO@@******.          ",
"           .OO@@****@.          ",
"            .OO@@@@@.           ",
"            .OO+%%%O.           ",
"           .**++%%&O@.          ",
"           .**++%&&O@.          ",
"            .O++$$$O.           ",
"           o.#$$#$$.oo          ",
"          oo.O+..O+.ooo         ",
"          ooooooooooooo         ",
"           ooooooooooo          ",
"                                ",
"                                ",
"                                ",
"                                ",
"                                "
};
