/* XPM */
static char *e06c569f3cf147d2eb906dd19f4dc5fclpcEiCl9ReHdrMku[] = {
/* columns rows colors chars-per-pixel */
"160 32 13 1 ",
"  c None",
". c black",
"X c #21110D",
"o c #181C32",
"O c #402717",
"+ c #573A23",
"@ c #9A5C42",
"# c #AC7B5D",
"$ c #1D438A",
"% c #2C65B5",
"& c #787E97",
"* c #A4A8B5",
"= c #C1AC8F",
/* pixels */
"                                                                                                                                                                ",
"                                                                                                                                                                ",
"                                                                                                                                                                ",
"                                                                                                                                                                ",
"                                                                                                                                                                ",
"                                                                                                                                                                ",
"                                                                                                                                                                ",
"                                                                                                                                                                ",
"                                                                                                                                                                ",
"                     .... ..                                                                                                                                    ",
"                     .++O.+...                                                                                                                                  ",
"                     ..++O+O++.                                       .... ..                                                                                   ",
"                    .O+++++++++.                                      .++O.+...                                                                                 ",
"                   .O+++++++++++.                                     ..++O+O++.                                                                                ",
"                   .O++O+++OO+++.                                    .O+++++++++.                                        .... ..                                ",
"                   .OOOO+++O##O+O.                                  .O+++++++++++.                                       .++O.+...                              ",
"                   .O+OO++O####OO.                                  .O++O+++OO+++.                                       ..++O+O++.                             ",
"                   .O++#O+#X==X.O.                                  .OOOO+++O##O+O.                                     .O+++++++++.                            ",
"                   .OO+##O=X==X..                                   .O+OO++O####OO.                                    .O+++++++++++.                           ",
"                    .OO###====#.                                    .O++#O+#====.O.                                    .O++O+++OO+++.                           ",
"                     ..OO#####.                                     .OO+##O=X==X..                                     .OOOO+++O##O+O.                          ",
"                     .OOO&&&&O.                                     ..OO###====#.                                   ....O+OO++O####OO.                          ",
"                    .==O&&**O#.                                    .O++OOO&&&OO..                                  .%+++O++#O+#.==..O.                          ",
"                   o.==$%%%%##.                                    .+%%==&&&&=#O.                                 .O$O+..O+@#O#===#..                           ",
"                  oo.O$%%$%%OO.o                                  o.%%$==&&&###O.o                               o.O$$.==.O@@#####..o                           ",
"                  oooooooooooooo                                  oooooooooooooooo                               ooooo.==.ooooooooooo                           ",
"                   oooooooooooo                                    oooooooooooooo                                 oooooooooooooooooo                            ",
"                                                                                                                                                                ",
"                                                                                                                                                                ",
"                                                                                                                                                                ",
"                                                                                                                                                                ",
"                                                                                                                                                                "
};
