/* XPM */
static char *f95b62c525a54937a52ea300fcd105ccSJbQMFxB8P2dmiIC[] = {
/* columns rows colors chars-per-pixel */
"32 32 10 1 ",
"  c None",
". c black",
"X c #181C32",
"o c #1D235D",
"O c #9E2E46",
"+ c #33418A",
"@ c #425B9E",
"# c #4D8AB3",
"$ c #65B1B8",
"% c white",
/* pixels */
"                                ",
"                                ",
"                                ",
"                                ",
"                                ",
"                                ",
"                                ",
"                                ",
"                                ",
"                                ",
"                                ",
"                                ",
"                                ",
"            oooooooo            ",
"           o@#$$$$$@o           ",
"          o@#$$$$$$$@o          ",
"         o@##$$$$$$$$@o         ",
"        o@@#$$$%.$$.$#@o        ",
"        o@@#$$$..$$.$#@o        ",
"        o@@#$++$$$$$+#@o        ",
"        o@@@#$++++++#@@o        ",
"        Xo@@@##OO++#@@@o        ",
"        XXXX@@@@@@@@@@oX        ",
"         XXXXXXXXXXXXXX         ",
"                                ",
"                                ",
"                                ",
"                                ",
"                                ",
"                                ",
"                                ",
"                                "
};
