/* XPM */
static char *_bde965d6284444f9d480678c10172baW6gnzAtEgvu3pzbp[] = {
/* columns rows colors chars-per-pixel */
"32 32 10 1 ",
"  c None",
". c black",
"X c #171C31",
"o c #1D235D",
"O c #9E2E46",
"+ c #33418A",
"@ c #425B9E",
"# c #4D8AB3",
"$ c #65B1B8",
"% c white",
/* pixels */
"                                ",
"                                ",
"                                ",
"                                ",
"                                ",
"                                ",
"                                ",
"                                ",
"                                ",
"                                ",
"           ooooooo              ",
"          o@######o             ",
"         o@###$$$$#o            ",
"         o###$$$$$$@o           ",
"         o###$$..$$.o           ",
"         o##$$$..$$.#o          ",
"         o##$$$$$$$$#o          ",
"         o@##$$$$$$$#@o         ",
"          o@@#$$$$$$#@o         ",
"          Xo@@######@@o         ",
"         XXXoo@@@@@@@oX         ",
"         XXXXXoooooooXX         ",
"         XXXXXXXXXXXXXX         ",
"          XXXXXXXXXXXX          ",
"                                ",
"                                ",
"                                ",
"                                ",
"                                ",
"                                ",
"                                ",
"                                "
};
